<?xml version="1.0" standalone="no"?><!DOCTYPE svg PUBLIC "-//W3C//DTD SVG 1.1//EN" "http://www.w3.org/Graphics/SVG/1.1/DTD/svg11.dtd"><svg t="1647759669107" class="icon" viewBox="0 0 1024 1024" version="1.1" xmlns="http://www.w3.org/2000/svg" p-id="8722" xmlns:xlink="http://www.w3.org/1999/xlink" width="16" height="16"><defs><style type="text/css">@font-face { font-family: feedback-iconfont; src: url("//at.alicdn.com/t/font_1031158_u69w8yhxdu.woff2?t=1630033759944") format("woff2"), url("//at.alicdn.com/t/font_1031158_u69w8yhxdu.woff?t=1630033759944") format("woff"), url("//at.alicdn.com/t/font_1031158_u69w8yhxdu.ttf?t=1630033759944") format("truetype"); }
</style></defs><path d="M1020.065754 401.743077a73.714326 73.714326 0 0 0-59.022651-48.375027L694.7501 313.797791l-115.792921-240.390608A74.175041 74.175041 0 0 0 512 31.942875c-28.666682 0-54.773839 16.22739-66.957179 41.464308L329.2499 313.797791l-266.395384 39.570259c-27.130967 3.890478-49.808361 22.523822-58.869079 48.375027A70.642896 70.642896 0 0 0 21.083065 474.843117l195.189392 194.882249-45.252405 270.388243a71.154801 71.154801 0 0 0 30.304778 70.438134 75.250041 75.250041 0 0 0 78.372662 4.197621L512 889.742153l232.251317 125.007211a75.761946 75.761946 0 0 0 78.321472-4.197621 71.154801 71.154801 0 0 0 30.304778-70.438134l-45.303596-270.388243 195.291773-194.882249c19.29882-19.29882 25.902395-47.504788 17.20001-73.10004z" fill="#FF3232" p-id="8723"></path></svg>